HIERARCHY
ROOT root
{
	OFFSET 0.000000 0.000000 0.000000
	CHANNELS 6 Xposition Yposition Zposition Zrotation Yrotation Xrotation
	JOINT lhip
	{
		OFFSET 0.058581 -0.082280 -0.017664
		CHANNELS 3 Zrotation Yrotation Xrotation
		JOINT lknee
		{
			OFFSET 0.043451 -0.386469 0.008037
			CHANNELS 3 Zrotation Yrotation Xrotation
			JOINT lankle
			{
				OFFSET -0.014790 -0.426874 -0.037428
				CHANNELS 3 Zrotation Yrotation Xrotation
				JOINT ltoe
				{
					OFFSET 0.041054 -0.060286 0.122042
					CHANNELS 3 Zrotation Yrotation Xrotation
					End Site
					{
						OFFSET 0.000000 0.000000 0.000000
					}
				}
			}
		}
	}
	JOINT rhip
	{
		OFFSET -0.060310 -0.090513 -0.013543
		CHANNELS 3 Zrotation Yrotation Xrotation
		JOINT rknee
		{
			OFFSET -0.043257 -0.383688 -0.004843
			CHANNELS 3 Zrotation Yrotation Xrotation
			JOINT rankle
			{
				OFFSET 0.019056 -0.420046 -0.034562
				CHANNELS 3 Zrotation Yrotation Xrotation
				JOINT rtoe
				{
					OFFSET -0.034840 -0.062106 0.130323
					CHANNELS 3 Zrotation Yrotation Xrotation
					End Site
					{
						OFFSET 0.000000 0.000000 0.000000
					}
				}
			}
		}
	}
	JOINT lowerback
	{
		OFFSET 0.004439 0.124404 -0.038385
		CHANNELS 3 Zrotation Yrotation Xrotation
		JOINT upperback
		{
			OFFSET 0.004488 0.137956 0.026820
			CHANNELS 3 Zrotation Yrotation Xrotation
			JOINT chest
			{
				OFFSET -0.002265 0.056032 0.002855
				CHANNELS 3 Zrotation Yrotation Xrotation
				JOINT lowerneck
				{
					OFFSET -0.013390 0.211636 -0.033468
					CHANNELS 3 Zrotation Yrotation Xrotation
					JOINT upperneck
					{
						OFFSET 0.010113 0.088937 0.050410
						CHANNELS 3 Zrotation Yrotation Xrotation
						End Site
						{
							OFFSET 0.000000 0.000000 0.000000
						}
					}
				}
				JOINT lclavicle
				{
					OFFSET 0.071702 0.114000 -0.018898
					CHANNELS 3 Zrotation Yrotation Xrotation
					JOINT lshoulder
					{
						OFFSET 0.122921 0.045205 -0.019046
						CHANNELS 3 Zrotation Yrotation Xrotation
						JOINT lelbow
						{
							OFFSET 0.255332 -0.015649 -0.022946
							CHANNELS 3 Zrotation Yrotation Xrotation
							JOINT lwrist
							{
								OFFSET 0.265709 0.012698 -0.007375
								CHANNELS 3 Zrotation Yrotation Xrotation
								End Site
								{
									OFFSET 0.000000 0.000000 0.000000
								}
							}
						}
					}
				}
				JOINT rclavicle
				{
					OFFSET -0.082954 0.112472 -0.023707
					CHANNELS 3 Zrotation Yrotation Xrotation
					JOINT rshoulder
					{
						OFFSET -0.113228 0.046853 -0.008472
						CHANNELS 3 Zrotation Yrotation Xrotation
						JOINT relbow
						{
							OFFSET -0.260127 -0.014369 -0.031269
							CHANNELS 3 Zrotation Yrotation Xrotation
							JOINT rwrist
							{
								OFFSET -0.269108 0.006794 -0.006027
								CHANNELS 3 Zrotation Yrotation Xrotation
								End Site
								{
									OFFSET 0.000000 0.000000 0.000000
								}
							}
						}
					}
				}
			}
		}
	}
}
MOTION
Frames: 14
Frame Time: 0.033333
1.977876 -0.088003 0.993141 -4.481524 -0.883657 94.052597 2.343091 -5.029810 -6.612000 -6.282454 1.319254 1.605851 3.845801 2.140391 -11.135024 0.000000 -0.000000 0.000000 -6.017242 1.242986 -11.568232 6.689204 -9.221328 14.196330 4.047139 7.604393 -8.579059 0.000000 -0.000000 0.000000 -3.166677 0.887602 -5.956041 3.499277 -2.788846 4.825846 -2.950090 1.874041 -4.784617 2.358346 -4.775892 12.859891 8.583411 -13.609922 -5.194602 -10.598746 5.541267 -2.586927 -87.867524 -38.454039 37.553102 166.349714 -41.548957 -133.835089 33.727035 -34.458353 -13.826340 15.702567 4.674679 2.813458 79.934962 37.699163 22.868620 -166.866710 37.700551 -136.989229 -33.355201 30.273998 -8.774233 
1.977854 -0.087992 0.993014 -4.466925 -0.918738 94.129615 2.316810 -5.007989 -6.752145 -6.301155 1.257403 1.695956 3.927239 2.192809 -11.191420 0.000000 -0.000000 0.000000 -6.087896 1.142968 -11.650780 6.757478 -9.268549 14.184377 3.904309 7.673950 -8.587817 0.000000 -0.000000 0.000000 -3.039623 0.721695 -6.095334 3.381966 -3.060977 5.433041 -3.244286 2.210339 -5.231240 2.644189 -4.676081 12.325318 8.514394 -13.640953 -4.832307 -11.132991 5.860794 -2.636538 -86.701141 -38.033406 37.021650 165.847626 -42.187034 -134.058894 33.890890 -34.264442 -14.266253 16.363699 4.638513 2.976831 78.815452 37.167682 22.378719 -166.624486 38.311897 -137.404057 -33.318800 30.410583 -8.596537 
1.977816 -0.088346 0.993058 -4.498891 -0.857884 94.231730 2.378856 -4.843683 -6.798687 -6.362406 0.804732 1.618339 3.952529 2.548493 -11.120856 0.000000 -0.000000 0.000000 -6.008209 1.023621 -11.658540 6.905878 -8.859661 13.993963 3.807243 7.303688 -8.527355 0.000000 -0.000000 0.000000 -3.127840 1.036181 -5.836677 3.438828 -2.664555 4.797128 -2.985657 1.981873 -5.072272 2.396348 -5.288369 11.870489 8.434674 -13.316639 -4.246404 -12.481449 5.678366 -2.175518 -84.516106 -37.305010 35.694180 165.373937 -43.803762 -134.191604 34.827018 -33.882841 -15.212413 16.776225 4.164564 2.903473 76.871228 35.793926 20.933867 -166.599568 39.672175 -138.322188 -33.777451 29.985117 -9.162873 
1.977871 -0.088675 0.992580 -4.541704 -0.911993 94.272136 2.331343 -4.546245 -6.809144 -6.453364 0.406452 1.481868 4.006611 2.780894 -11.044446 0.000000 -0.000000 0.000000 -6.124582 0.752239 -11.726161 7.149183 -8.548008 13.918335 3.585035 7.155951 -8.493268 0.000000 -0.000000 0.000000 -2.872253 0.958372 -5.979293 3.258893 -2.848650 5.413551 -3.260251 2.245214 -5.744266 2.440728 -5.407959 11.124583 8.159423 -13.132272 -3.331321 -14.305604 5.826362 -1.930976 -80.759592 -35.864982 33.599695 164.412423 -46.268280 -134.638822 34.898324 -33.687597 -15.317179 18.033851 4.140131 3.123033 74.002214 33.683049 19.462231 -166.085020 42.175063 -139.934721 -33.459312 29.869709 -9.472739 
1.978006 -0.089483 0.992434 -4.521398 -0.809592 94.326458 2.444759 -4.098302 -6.787958 -6.592731 -0.405718 1.217690 3.947158 3.279603 -10.836925 0.000000 -0.000000 0.000000 -6.041694 0.432349 -11.686593 7.524250 -7.776782 13.542022 3.422763 6.495340 -8.254258 0.000000 -0.000000 0.000000 -2.900942 1.453280 -5.621976 3.291361 -2.232749 4.482884 -2.820790 1.773558 -5.681124 1.930582 -6.512491 10.557899 7.998087 -12.457967 -2.286412 -17.167000 5.461331 -1.017052 -76.148220 -33.631490 30.938886 163.483000 -49.901268 -135.620987 34.042453 -33.267827 -14.723561 19.005864 3.343256 3.097947 70.351428 30.131582 16.895257 -166.026691 46.038310 -142.794365 -31.674266 29.146402 -9.571871 
1.978225 -0.090519 0.992209 -4.492310 -0.789923 94.372051 2.467028 -3.675210 -6.709962 -6.757333 -1.218300 0.883199 3.939866 3.797662 -10.603997 0.000000 -0.000000 0.000000 -6.064079 0.060467 -11.623332 7.899538 -7.071701 13.194457 3.185795 5.905271 -8.080572 0.000000 -0.000000 0.000000 -2.772127 1.744980 -5.506669 3.131453 -1.921689 4.050818 -2.635036 1.593113 -5.825097 1.533846 -7.409149 10.009758 8.026988 -11.827829 -1.475965 -19.928975 5.322232 0.027272 -71.105669 -30.544490 28.118260 161.947527 -54.497110 -136.800846 31.417827 -32.979326 -13.376162 20.293225 2.763618 3.531654 66.587112 26.012673 14.373210 -165.942498 51.183496 -145.968844 -27.187561 28.441970 -8.338588 
1.978306 -0.091916 0.991848 -4.398282 -0.829398 94.359641 2.452690 -3.283847 -6.550892 -6.966663 -2.012065 0.542434 3.998502 4.257606 -10.387370 0.000000 -0.000000 0.000000 -6.127638 -0.327559 -11.454566 8.224706 -6.451846 12.813220 2.883071 5.390649 -7.914593 0.000000 -0.000000 0.000000 -2.437282 1.687818 -5.709260 2.813872 -2.091776 4.530060 -2.800298 1.725750 -6.427226 1.417651 -7.795786 9.392589 8.061941 -11.473573 -0.778148 -22.246991 5.434024 0.974762 -66.248453 -26.565408 25.435095 159.073676 -60.121707 -137.179804 26.811288 -32.553985 -11.479991 21.792663 2.583762 4.274546 63.422861 21.708810 12.334446 -165.086164 57.971584 -148.271091 -19.991489 27.491242 -5.674479 
1.978312 -0.093665 0.991709 -4.333929 -0.788727 94.303887 2.497314 -2.854314 -6.323657 -7.174894 -2.999513 0.246721 4.054405 4.898277 -10.184069 0.000000 -0.000000 0.000000 -6.077668 -0.601431 -11.239587 8.561389 -5.581076 12.444584 2.592247 4.584523 -7.743677 0.000000 -0.000000 0.000000 -2.229338 1.775743 -5.990325 2.592191 -2.065571 4.838193 -2.717110 1.639215 -6.651469 1.164823 -8.448495 8.978044 8.127948 -10.859155 -0.387444 -24.111348 5.419892 2.107494 -62.639191 -22.258700 23.104679 152.982839 -67.048393 -134.278887 19.835466 -30.969846 -8.975396 22.576985 2.236516 4.860186 61.115403 17.672999 10.471657 -162.624695 66.917559 -148.277863 -11.804499 25.528729 -2.472220 
1.978376 -0.095498 0.991859 -4.273794 -0.714861 94.212724 2.546699 -2.518921 -6.091652 -7.369046 -4.070664 0.059054 4.179433 5.690940 -9.987349 0.000000 -0.000000 0.000000 -5.981869 -0.739735 -11.020227 8.902181 -4.508258 12.163866 2.263580 3.486731 -7.606358 0.000000 -0.000000 0.000000 -1.976862 1.809939 -6.163285 2.401030 -2.066884 4.871736 -2.632535 1.565515 -6.750135 0.910855 -9.266206 8.946480 8.102036 -9.737741 -0.222728 -25.125527 5.750768 3.216641 -60.740894 -18.235935 21.256836 137.201994 -74.766970 -121.471829 9.872002 -27.539569 -6.167644 22.663146 1.583629 5.434930 60.206944 14.810005 9.269813 -152.701903 78.133066 -139.731887 -1.783714 21.866728 1.135457 
1.978057 -0.097294 0.992389 -4.143066 -0.586446 93.975217 2.664950 -2.274561 -5.776023 -7.576849 -5.168088 0.043092 4.390942 6.517119 -9.873951 0.000000 -0.000000 0.000000 -5.772991 -0.811820 -10.680568 9.215993 -3.328242 11.985388 1.982284 2.226653 -7.474344 0.000000 -0.000000 0.000000 -1.724833 1.778559 -6.036480 2.262946 -2.110849 4.499840 -2.600863 1.579913 -6.520987 0.588466 -10.091263 8.759361 8.127514 -8.788073 0.198836 -25.629924 6.363470 3.914704 -60.182584 -15.241625 19.872964 87.946445 -79.709731 -75.750692 -1.738008 -22.708465 -4.477173 22.850361 0.837537 5.878207 59.963545 13.255099 8.571198 -59.580652 85.006323 -47.918169 9.410908 16.293414 4.085886 
1.977608 -0.098901 0.992845 -4.018688 -0.476197 93.644069 2.728098 -2.004098 -5.416001 -7.746849 -6.281800 0.181537 4.643087 7.354465 -9.830356 0.000000 -0.000000 0.000000 -5.500004 -0.803539 -10.248635 9.376026 -2.106905 11.854932 1.675695 0.904425 -7.412448 0.000000 -0.000000 0.000000 -1.625694 1.813508 -5.775691 2.185707 -2.103798 4.259207 -2.477172 1.726709 -6.368977 0.371653 -10.928446 8.276628 8.033495 -8.091754 0.861637 -26.241278 6.394209 4.481375 -60.263690 -13.255735 18.729880 36.719557 -72.442263 -27.867579 -11.642158 -17.116138 -3.702504 23.463611 0.671034 6.637591 59.708460 12.331276 8.097195 -15.374009 73.843070 -5.119396 17.792020 10.648248 4.950518 
1.977039 -0.100061 0.992597 -3.896990 -0.372041 93.421444 2.818482 -1.600531 -5.211123 -7.947720 -7.312617 0.460544 4.799245 8.030137 -9.841031 0.000000 -0.000000 0.000000 -5.250536 -0.786747 -9.900773 9.458013 -1.111080 11.758592 1.389194 -0.186735 -7.416592 0.000000 -0.000000 0.000000 -1.658914 2.037845 -5.693558 2.135627 -2.048062 4.628920 -2.213867 1.866762 -6.610021 0.342714 -11.550911 7.588514 7.822877 -7.776202 1.375866 -27.188871 5.006638 5.190897 -60.584141 -11.432209 17.645067 21.798946 -58.706549 -15.394971 -17.052539 -11.951771 -2.676731 24.525168 1.528203 7.794814 59.382034 11.116290 7.473634 -11.359973 61.683414 -1.951259 20.279775 6.684701 6.475840 
1.976591 -0.100993 0.991598 -3.708411 -0.251750 93.256516 2.944074 -1.157638 -5.038709 -8.117028 -8.216527 0.736263 4.812521 8.488719 -9.871843 0.000000 -0.000000 0.000000 -5.108829 -0.895155 -9.534240 9.626933 -0.390487 11.651480 1.167365 -0.908650 -7.490345 0.000000 -0.000000 0.000000 -1.597277 2.333970 -5.619650 2.011587 -2.004498 5.326498 -1.917008 1.850336 -6.993200 0.483979 -11.686179 6.789315 7.680807 -7.785784 1.320758 -28.326331 2.761508 5.706652 -61.091258 -9.792672 16.728375 16.142557 -42.975990 -12.615784 -17.183156 -9.607740 -1.705173 25.457265 2.913917 8.611279 59.629473 9.603715 6.849912 -11.001875 49.567069 -2.374891 18.146170 5.531154 7.881739 
1.976666 -0.102157 0.990388 -3.474340 -0.261058 93.079403 2.870750 -0.742871 -4.799719 -8.168414 -8.936921 0.902474 4.676824 8.709726 -9.926138 0.000000 -0.000000 0.000000 -5.211515 -1.086296 -9.081996 9.881236 0.136955 11.488303 0.829793 -1.375968 -7.709373 0.000000 -0.000000 0.000000 -1.395915 2.501045 -5.462669 1.687913 -2.044855 6.192388 -1.729145 1.556129 -7.512968 0.702374 -11.356575 6.119404 7.762527 -7.585288 0.663291 -29.600979 0.694114 5.841352 -61.445792 -8.264594 15.910295 13.252188 -27.025653 -12.600241 -15.233878 -10.168115 -0.009614 25.879167 4.176589 8.597728 60.734621 8.567407 6.669085 -10.905527 36.681307 -4.434156 14.955541 6.968761 5.907864 
